<?xml version="1.0" encoding="utf-8"?>
<!-- Generator: Adobe Illustrator 24.3.0, SVG Export Plug-In . SVG Version: 6.00 Build 0)  -->
<svg version="1.1" id="Calque_1" xmlns="http://www.w3.org/2000/svg" xmlns:xlink="http://www.w3.org/1999/xlink" x="0px" y="0px"
	 viewBox="0 0 595.3 283.5" style="enable-background:new 0 0 595.3 283.5;" xml:space="preserve">
<style type="text/css">
	.st0{fill:#FFFFFF;}
	.st1{fill:#3C3C3B;stroke:#3C3C3B;stroke-width:7.5506;stroke-miterlimit:10;}
	.st2{fill:none;stroke:#3C3C3B;stroke-width:7.5506;stroke-miterlimit:10;}
	.st3{fill:#3C3C3B;stroke:#3C3C3B;stroke-width:5.6304;stroke-miterlimit:10;}
	.st4{fill:none;stroke:#3C3C3B;stroke-width:4;stroke-miterlimit:10;}
</style>
<rect class="st0" width="595.3" height="283.5"/>
<g>
	<g>
		<line class="st1" x1="282" y1="168.1" x2="282" y2="189"/>
		<polyline class="st2" points="293.1,168.1 293.1,186.6 304,194 		"/>
		<path class="st3" d="M273.6,164.4h8.5c1.5,0,8.2,0,9.8,0h10c1.5,0,2.6-0.4,3.3-1.1c0.7-0.7,1-1.9,1-3.4v-2.5h2.5
			c0.1,0.4,0.1,0.8,0.2,1.3c0,0.5,0.1,1,0.1,1.5c0,2.5-0.6,4.3-1.8,5.6c-1.2,1.2-2.9,1.9-5.3,1.9c0,0-18.4,0-19.6,0h-8.7
			c-1.5,0-2.6,0.4-3.3,1.1c-0.7,0.7-1,1.9-1,3.4v2.5l-2.5,0c-0.1-0.4-0.1-0.8-0.2-1.3c0-0.5-0.1-1-0.1-1.5c0-2.5,0.6-4.3,1.8-5.6
			C269.5,165.1,271.2,164.4,273.6,164.4L273.6,164.4z"/>
	</g>
	<path class="st4" d="M266.6,98.4l-5.6,3.6c-9.1,5.8-14.4,15-14.4,24.8v0c0,7.7,4.5,14.9,12,19.1l0,0c4.2,2.4,9.2,3.7,14.3,3.7h30.8
		c4.8,0,9.5-1.2,13.6-3.4h0c7.3-4,11.7-11,11.7-18.5v-3.2c0-8.5-3.9-16.6-10.8-22.6l0,0c-3.6-3.1-8.5-4.9-13.6-4.9l0,0
		c-9.3,0-16.8,6.5-16.8,14.5v48"/>
</g>
</svg>
