<?xml version="1.0" encoding="utf-8"?>
<!-- Generator: Adobe Illustrator 24.3.0, SVG Export Plug-In . SVG Version: 6.00 Build 0)  -->
<svg version="1.1" id="Calque_1" xmlns="http://www.w3.org/2000/svg" xmlns:xlink="http://www.w3.org/1999/xlink" x="0px" y="0px"
	 viewBox="0 0 1000 600" style="enable-background:new 0 0 1000 600;" xml:space="preserve">
<style type="text/css">
	.st0{fill:#3C3C3B;}
</style>
<g>
	<path class="st0" d="M171.9,352.3c-3.3,0-6.5,0.1-9.7,0.3c-3.2,0.2-6.3,0.6-9.4,1c-3.1,0.5-6,1-8.9,1.6v111.2
		c2.9,0.3,5.7,0.6,8.4,0.8c2.8,0.2,5.5,0.4,8.3,0.5c2.7,0.1,5.4,0.2,8,0.2c12.4,0,22.7-2,31-6c8.3-4,14.5-10.2,18.7-18.7
		c4.2-8.5,6.2-19.5,6.2-33c0-19.9-4.4-34.5-13.2-43.9C202.7,356.9,189.5,352.3,171.9,352.3z M201.6,434.9
		c-2.4,6.1-6.1,10.5-10.8,13.1c-4.8,2.6-10.6,4-17.6,4c-1.5,0-3.1,0-4.8-0.1c-1.7-0.1-3.6-0.2-5.7-0.3V369c1.7-0.3,3.6-0.5,5.6-0.7
		c2-0.2,3.8-0.3,5.5-0.3c6.9,0,12.7,1.4,17.4,4.1c4.7,2.7,8.2,7.2,10.6,13.3c2.4,6.2,3.6,14.4,3.6,24.7
		C205.3,420.5,204.1,428.8,201.6,434.9z"/>
	<path class="st0" d="M283.7,386.6c-4.5-3.1-9.9-4.6-16.4-4.6c-6.7,0-12.5,1.5-17.3,4.6c-4.8,3.1-8.5,7.8-11.1,14.1
		c-2.6,6.3-3.9,14.4-3.9,24c0,10.4,1.4,18.9,4.1,25.2c2.7,6.4,6.9,11,12.5,13.9c5.6,2.9,12.8,4.4,21.5,4.4c3.4,0,6.7-0.2,10-0.7
		c3.2-0.5,6.7-1.2,10.5-2.2v-15c-3.4,0.9-6.6,1.6-9.6,2.1c-3,0.5-5.9,0.7-8.7,0.7c-5.2,0-9.4-0.8-12.5-2.3c-3.1-1.5-5.4-4-6.9-7.6
		c-1.3-3.1-1.9-7.3-2.1-12.4h43.6v-5.6c0-9.9-1.2-18.1-3.5-24.5C291.6,394.4,288.2,389.6,283.7,386.6z M260.1,396.8
		c2-1.5,4.4-2.2,7.1-2.2c2.6,0,4.9,0.7,6.8,2.2c1.9,1.5,3.4,4,4.4,7.8c0.9,3.5,1.4,8.3,1.5,14.5h-26.2c0.1-6.2,0.6-11,1.6-14.5
		C256.5,400.8,258.1,398.2,260.1,396.8z"/>
	<polygon class="st0" points="337.7,448.7 319.7,383.3 300.5,383.3 325.3,466.7 349.4,466.7 374.2,383.3 355.7,383.3 	"/>
	<path class="st0" d="M411.7,418.9l-9.9-2.4c-2.8-0.8-4.8-1.9-6.2-3.3c-1.4-1.4-2-3.4-2-5.9c0-1.9,0.5-3.6,1.6-5.2
		c1-1.6,2.8-2.8,5.1-3.8c2.4-0.9,5.5-1.4,9.4-1.4c3.1,0,5.9,0.2,8.5,0.5c2.6,0.3,5.3,0.8,8.1,1.6v-15c-2.5-0.6-5.3-1.1-8.1-1.5
		c-2.9-0.4-6-0.5-9.4-0.5c-10.4,0-18.4,2.3-23.9,7c-5.5,4.7-8.2,10.8-8.2,18.3c0,6.4,1.6,11.5,4.7,15.2c3.1,3.8,7.8,6.5,14.2,8.1
		l9.9,2.5c2.8,0.8,4.8,1.9,6.2,3.3c1.4,1.4,2.1,3.6,2.1,6.4c0,3.3-1.2,5.8-3.5,7.6c-2.3,1.8-6,2.8-11,2.8c-3.5,0-6.9-0.3-10.3-0.8
		c-3.4-0.6-6.7-1.4-10-2.5v15c3.2,1.1,6.5,1.9,10,2.5c3.4,0.5,7,0.8,10.7,0.8c9.7,0,17.3-2.3,22.8-6.9c5.5-4.6,8.3-10.9,8.3-18.9
		c0-6.5-1.5-11.6-4.5-15.3C423.1,423.4,418.3,420.6,411.7,418.9z"/>
	<path class="st0" d="M471.8,353.6l-36.5,113.1h8.9l12.2-38.4h42.7l12.2,38.4h9l-36.5-113.1H471.8z M458.9,420.4l18.8-59.4
		l18.9,59.4H458.9z"/>
	<path class="st0" d="M570.9,383.1c-2.3-0.3-4.6-0.4-6.7-0.4c-11.6,0-20.5,3.5-26.7,10.6c-6.3,7.1-9.4,18.3-9.4,33.6
		c0,10.5,1.3,18.7,3.8,24.6c2.5,5.9,5.9,10.2,10,12.6c4.1,2.5,8.6,3.7,13.4,3.7c4.4,0,8.3-0.9,11.5-2.8c3.2-1.8,5.7-4,7.6-6.4h0.5
		V469c0,9.4-1.9,16-5.8,19.7c-3.8,3.7-9.6,5.6-17.2,5.6c-3,0-6-0.3-9.2-0.8c-3.2-0.6-6.4-1.4-9.9-2.6v7.7c2.8,1.1,6,1.9,9.5,2.4
		c3.5,0.6,6.8,0.8,10,0.8c10.2,0,17.9-2.6,23.2-7.8c5.3-5.2,7.9-13.9,7.9-26.1v-82.2c-1.6-0.6-3.5-1.1-5.7-1.6
		C575.5,383.7,573.2,383.4,570.9,383.1z M574.8,449.9c-1.8,3.4-4.3,5.9-7.5,7.7c-3.2,1.8-6.6,2.6-10,2.6c-3.8,0-7.2-0.9-10.3-2.8
		c-3.1-1.8-5.5-5.2-7.3-10.1c-1.8-4.9-2.7-12-2.7-21.2c0-13.2,2.3-22.5,7-27.9c4.6-5.4,11.2-8.1,19.8-8.1c1.9,0,3.8,0.1,5.9,0.4
		c2,0.3,3.7,0.6,5.1,1V449.9z"/>
	<path class="st0" d="M642.3,386.8c-4-2.8-8.7-4.1-14.2-4.1c-5.5,0-10.4,1.4-14.6,4.2c-4.2,2.8-7.6,7.3-10,13.5
		c-2.4,6.2-3.6,14.5-3.6,24.9c0,10.5,1.2,18.9,3.7,25.1c2.5,6.3,6.2,10.8,11.1,13.6c4.9,2.8,11,4.2,18.2,4.2c2.9,0,5.7-0.2,8.7-0.7
		c2.9-0.5,6.1-1.2,9.5-2.4v-7.7c-3.5,1.1-6.7,1.9-9.5,2.4c-2.8,0.5-5.5,0.8-7.9,0.8c-5.6,0-10.2-1-13.8-3.1
		c-3.7-2.1-6.4-5.6-8.3-10.5c-1.7-4.5-2.6-10.7-2.7-18.3h45.9v-3.2c0-10.4-1.1-18.8-3.3-25C649.4,394.1,646.3,389.6,642.3,386.8z
		 M611.4,402.8c1.7-4.9,4-8.3,6.9-10.2c2.9-1.9,6.2-2.9,9.9-2.9c3.6,0,6.8,1,9.5,2.9c2.7,1.9,4.8,5.3,6.3,10.2
		c1.4,4.6,2.2,10.9,2.3,19h-37.3C609,413.7,609.8,407.3,611.4,402.8z"/>
	<path class="st0" d="M712.7,385c-3.3-1.6-7.1-2.3-11.2-2.3c-4.4,0-8.5,0.9-12.3,2.8c-3.8,1.9-7.1,4.4-9.9,7.8h-0.7l-0.8-9.3h-7.3
		v82.8h8.6v-63.7c1.7-3.1,3.7-5.5,6.1-7.3c2.4-1.8,4.9-3.1,7.4-3.8c2.5-0.8,4.9-1.1,7-1.1c4.5,0,8.2,1.3,11,3.8
		c2.8,2.5,4.2,7.2,4.2,14.1v58.1h8.6v-58.5c0-6.4-1-11.5-2.9-15.2C718.6,389.2,716,386.6,712.7,385z"/>
	<path class="st0" d="M773.2,382.7c-7.3,0-13.5,1.4-18.5,4.1c-5.1,2.7-8.9,7.2-11.5,13.4c-2.6,6.2-3.9,14.6-3.9,25.1
		c0,10.4,1.2,18.8,3.6,25c2.4,6.2,5.8,10.8,10.4,13.6c4.6,2.8,10.1,4.2,16.7,4.2c2.8,0,5.5-0.2,8.3-0.7c2.8-0.5,5.6-1.3,8.6-2.3
		v-7.8c-3.1,1-5.8,1.8-8.4,2.3c-2.5,0.5-4.9,0.8-7.1,0.8c-5,0-9.3-1.1-12.7-3.2c-3.4-2.1-6-5.7-7.7-10.9c-1.7-5.1-2.6-12.2-2.6-21.2
		c0-8.9,0.9-15.9,2.8-20.9c1.9-5,4.7-8.5,8.6-10.6c3.8-2,8.7-3.1,14.6-3.1c1.5,0,3.3,0.1,5.5,0.3c2.2,0.2,4.5,0.7,6.8,1.3v-7.9
		c-2.2-0.6-4.5-1-6.8-1.2C777.6,382.8,775.4,382.7,773.2,382.7z"/>
	<polygon class="st0" points="846.9,383.9 822.7,458.7 798.9,383.9 789.7,383.9 817,466.7 819.9,466.7 808.7,500.3 817.5,500.3 
		856,383.9 	"/>
	<path class="st0" d="M524.1,217.3l-0.7-4.7h-15v10.2c0,2.3-0.5,2.9-0.5,2.9c0,0-0.5,0.4-2.3,0.4h-54.5v0c-6,0-10.7,1.8-14.1,5.3
		c-3.2,3.4-4.9,8.3-4.9,14.4c0,1.2,0,2.3,0.1,3.4c0.1,1.1,0.2,2.1,0.4,3l0.8,4.5h14.8v-10.2c0-2.3,0.5-2.9,0.5-2.9
		c0,0,0.6-0.4,2.4-0.4h8.9v35.6h14.5v-35.6h6.8v34.8l24.2,16.4l8.2-12L496,270.2v-27.1h9.6c6,0,10.8-1.8,14.1-5.3
		c3.3-3.4,4.9-8.3,4.9-14.4c0-1.2-0.1-2.3-0.2-3.5C524.3,219,524.2,218.1,524.1,217.3z"/>
	<path class="st0" d="M420.3,199.3c8.8,4.9,18.9,7.5,29.3,7.5h24.9v15.4h7.7v-15.4h26.7c9.9,0,19.6-2.4,28-7.1
		c15.3-8.5,24.5-23,24.5-38.9v-6.1c0-17.3-8-34.1-22.1-46.3c-7.7-6.7-17.9-10.3-28.6-10.3c-19.9,0-36.1,14.3-36.1,31.8v69.1h-24.9
		c-9.1,0-17.9-2.3-25.5-6.5c-13.2-7.4-21-19.9-21-33.3c0-17.4,9.7-34.1,26-44.5l10.9-7l-4.2-6.5l-10.9,7c-18.5,11.9-29.5,31-29.5,51
		C395.4,175.6,404.7,190.5,420.3,199.3z M482.2,130c0-13.3,12.8-24.1,28.4-24.1c8.8,0,17.4,3.1,23.6,8.4
		c12.5,10.8,19.4,25.2,19.4,40.5v6.1c0,13-7.7,25.1-20.5,32.2c-7.3,4-15.6,6.1-24.3,6.1h-26.7V130z"/>
</g>
</svg>
