<?xml version="1.0" encoding="utf-8"?>
<!-- Generator: Adobe Illustrator 24.3.0, SVG Export Plug-In . SVG Version: 6.00 Build 0)  -->
<svg version="1.1" id="Calque_1" xmlns="http://www.w3.org/2000/svg" xmlns:xlink="http://www.w3.org/1999/xlink" x="0px" y="0px"
	 viewBox="0 0 30 30" style="enable-background:new 0 0 30 30;" xml:space="preserve">
<style type="text/css">
	.st0{fill:#3C3C3B;}
</style>
<g>
	<path class="st0" d="M21.6,18.1l-0.1-0.7h-2.2v1.5c0,0.3-0.1,0.4-0.1,0.4s-0.1,0.1-0.3,0.1H11l0,0c-0.9,0-1.6,0.3-2,0.8
		c-0.5,0.5-0.7,1.2-0.7,2.1c0,0.2,0,0.3,0,0.5c0,0.2,0,0.3,0.1,0.4l0.1,0.6h2.2v-1.5c0-0.3,0.1-0.4,0.1-0.4c0,0,0.1-0.1,0.3-0.1h1.3
		V27h2.1v-5.2h1v5l3.5,2.4l1.2-1.7l-2.6-1.8v-3.9H19c0.9,0,1.6-0.3,2-0.8c0.5-0.5,0.7-1.2,0.7-2.1c0-0.2,0-0.3,0-0.5
		C21.7,18.3,21.7,18.2,21.6,18.1z"/>
	<path class="st0" d="M23.9,2.3c-1.1-1-2.6-1.5-4.2-1.5c-2.9,0-5.3,2.1-5.3,4.6v10h-3.6c-1.3,0-2.6-0.3-3.7-0.9
		c-1.9-1.1-3.1-2.9-3.1-4.8c0-2.5,1.4-5,3.8-6.5l1.6-1L8.8,1.2l-1.6,1C4.5,3.9,2.9,6.7,2.9,9.6c0,2.4,1.4,4.5,3.6,5.8
		c1.3,0.7,2.7,1.1,4.3,1.1h3.6v2.2h1.1v-2.2h3.9c1.4,0,2.8-0.4,4.1-1c2.2-1.2,3.6-3.3,3.6-5.7V9C27.1,6.5,25.9,4,23.9,2.3z
		 M25.9,9.9c0,1.9-1.1,3.6-3,4.7c-1.1,0.6-2.3,0.9-3.5,0.9h-3.9v-10c0-1.9,1.9-3.5,4.1-3.5c1.3,0,2.5,0.4,3.4,1.2
		c1.8,1.6,2.8,3.7,2.8,5.9L25.9,9.9L25.9,9.9z"/>
</g>
</svg>
