<?xml version="1.0" encoding="utf-8"?>
<!-- Generator: Adobe Illustrator 24.3.0, SVG Export Plug-In . SVG Version: 6.00 Build 0)  -->
<svg version="1.1" id="Calque_1" xmlns="http://www.w3.org/2000/svg" xmlns:xlink="http://www.w3.org/1999/xlink" x="0px" y="0px"
	 viewBox="0 0 595.3 283.5" style="enable-background:new 0 0 595.3 283.5;" xml:space="preserve">
<style type="text/css">
	.st0{fill:#3C3C3B;}
	.st1{fill:#FFFFFF;}
	.st2{font-size:39.7296px;}
	.st3{fill:#3C3C3B;stroke:#FFFFFF;stroke-width:3.7753;stroke-miterlimit:10;}
	.st4{fill:none;stroke:#FFFFFF;stroke-width:3.7753;stroke-miterlimit:10;}
	.st5{fill:#3C3C3B;stroke:#FFFFFF;stroke-width:2.8152;stroke-miterlimit:10;}
	.st6{fill:none;stroke:#FFFFFF;stroke-width:2;stroke-miterlimit:10;}
</style>
<rect class="st0" width="595.3" height="283.5"/>
<text transform="matrix(1 0 0 1 198.2068 183.1365)"><tspan x="0" y="0" class="st1 st2">Devs</tspan><tspan x="78.3" y="0" class="st1 st2">Agency</tspan></text>
<g>
	<g>
		<line class="st3" x1="284.9" y1="123.8" x2="284.9" y2="134.3"/>
		<polyline class="st4" points="290.4,123.8 290.4,133.1 295.9,136.8 		"/>
		<path class="st5" d="M280.7,122h4.3c0.8,0,4.1,0,4.9,0h5c0.8,0,1.3-0.2,1.6-0.6c0.3-0.4,0.5-0.9,0.5-1.7v-1.2h1.3
			c0,0.2,0.1,0.4,0.1,0.6c0,0.2,0,0.5,0,0.8c0,1.2-0.3,2.2-0.9,2.8c-0.6,0.6-1.5,0.9-2.6,0.9c0,0-9.2,0-9.8,0h-4.3
			c-0.8,0-1.3,0.2-1.7,0.6c-0.3,0.4-0.5,0.9-0.5,1.7v1.2h-1.3c0-0.2-0.1-0.4-0.1-0.6c0-0.2,0-0.5,0-0.8c0-1.2,0.3-2.2,0.9-2.8
			C278.6,122.3,279.5,122,280.7,122L280.7,122z"/>
	</g>
	<path class="st6" d="M277.2,89l-2.8,1.8c-4.5,2.9-7.2,7.5-7.2,12.4v0c0,3.9,2.3,7.4,6,9.5v0c2.1,1.2,4.6,1.8,7.1,1.8h15.4
		c2.4,0,4.8-0.6,6.8-1.7v0c3.6-2,5.8-5.5,5.8-9.2v-1.6c0-4.2-1.9-8.3-5.4-11.3v0c-1.8-1.6-4.2-2.4-6.8-2.4l0,0
		c-4.6,0-8.4,3.3-8.4,7.3v24"/>
</g>
</svg>
