<?xml version="1.0" encoding="utf-8"?>
<!-- Generator: Adobe Illustrator 24.3.0, SVG Export Plug-In . SVG Version: 6.00 Build 0)  -->
<svg version="1.1" id="Calque_1" xmlns="http://www.w3.org/2000/svg" xmlns:xlink="http://www.w3.org/1999/xlink" x="0px" y="0px"
	 viewBox="0 0 600 600" style="enable-background:new 0 0 600 600;" xml:space="preserve">
<style type="text/css">
	.st0{fill:#FFFFFF;}
</style>
<g>
	<path class="st0" d="M402.2,349.4l-1.5-10.4l-33.5,0v22.7c0,5.1-1.2,6.5-1.2,6.5c0,0-1.2,0.9-5.1,0.9H239.1v0
		c-13.4,0-24,4-31.4,11.8c-7.3,7.6-10.9,18.5-10.9,32.3c0,2.6,0.1,5.1,0.3,7.5c0.2,2.5,0.5,4.7,0.8,6.7l1.8,10h33.1v-22.7
		c0-4.6,1-6.2,1.2-6.5c0.2-0.1,1.6-0.8,5.2-0.8l20,0v79.7h32.5v-79.7l15.3,0V485l54.1,36.6l18.2-26.9l-39.8-27v-60.6l21.4,0
		c13.5,0,24.1-4,31.5-11.8c7.3-7.6,10.9-18.5,10.9-32.3c0-2.6-0.1-5.2-0.4-7.7C402.7,353.2,402.5,351.2,402.2,349.4z"/>
	<path class="st0" d="M436.2,106.2c-17.2-14.9-39.9-23.1-64.1-23.1c-44.5,0-80.8,31.9-80.8,71.1v154.6h-55.6
		c-20.3,0-40.1-5.1-57.1-14.6c-29.5-16.5-47.1-44.4-47.1-74.5c0-38.9,21.7-76.2,58-99.6l24.3-15.6l-9.3-14.5l-24.3,15.6
		c-41.3,26.6-65.9,69.2-65.9,114c0,36.4,20.9,69.9,55.8,89.5c19.6,11,42.3,16.8,65.5,16.8h55.6v34.5h17.2v-34.5h59.7
		c22.2,0,43.8-5.5,62.6-15.8c34.3-18.9,54.8-51.4,54.8-87v-13.6C485.6,171.1,467.6,133.4,436.2,106.2z M468.4,223.3
		c0,29.2-17.1,56.1-45.9,71.9c-16.2,8.9-35,13.7-54.3,13.7h-59.7V154.3c0-29.7,28.5-53.9,63.6-53.9c19.7,0,39,6.9,52.8,18.9
		c28,24.3,43.4,56.4,43.4,90.5V223.3z"/>
</g>
</svg>
